<svg xmlns="http://www.w3.org/2000/svg"  viewBox="0 0 24 24" width="24px" height="24px"><path d="M20,7c-0.724,0-1.425,0.197-2.047,0.572c-1.562-0.929-3.389-1.437-5.323-1.533c0.842-1.521,2.297-2,3.428-2.148	C16.231,4.529,16.808,5,17.5,5C18.328,5,19,4.328,19,3.5S18.328,2,17.5,2c-0.71,0-1.301,0.494-1.457,1.156	c-2.057,0.264-3.472,1.223-4.227,2.855c-2.101,0.03-4.087,0.56-5.769,1.561C5.425,7.197,4.724,7,4,7c-2.206,0-4,1.794-4,4	c0,1.429,0.785,2.758,2.024,3.466C2.324,18.714,6.638,22,12,22s9.676-3.286,9.976-7.534C23.215,13.758,24,12.429,24,11	C24,8.794,22.206,7,20,7z M5.628,12.997C5.628,11.951,6.646,11,7.449,11c1.046,0,1.611,0.894,1.611,1.997	c0,1.868-0.768,1.997-1.716,1.997C6.094,14.994,5.628,14.355,5.628,12.997z M12,18.891c-2.018,0-3.654-1.711-3.654-2.514	c0-0.444,1.636-0.393,3.654-0.393s3.654-0.069,3.654,0.393C15.654,17.18,14.018,18.891,12,18.891z M16.656,14.994	c-0.948,0-1.716-0.129-1.716-1.997c0-1.103,0.565-1.997,1.611-1.997c0.803,0,1.821,0.951,1.821,1.997	C18.372,14.355,17.906,14.994,16.656,14.994z"/></svg>